<svg width="28" height="28" viewBox="0 0 28 28" fill="none" xmlns="http://www.w3.org/2000/svg">
<path d="M2.80005 23.8C2.80005 24.5733 3.42678 25.2 4.20005 25.2H6.06672V21.9333H3.73338C3.73338 21.9333 2.80005 21.9333 2.80005 23.8Z" fill="#5AA064"/>
<path d="M25.2001 5.60001V25.6667C25.2001 26.6975 24.3643 27.5333 23.3334 27.5333H7.46676C6.4359 27.5333 5.6001 26.6975 5.6001 25.6667V2.33334C5.6001 1.30247 6.4359 0.466675 7.46676 0.466675H20.0668L25.2001 5.60001Z" fill="#E8ECEF"/>
<path d="M25.2 5.60001H20.5333C20.2767 5.60001 20.0667 5.39001 20.0667 5.13334V0.466675L25.2 5.60001Z" fill="#C7D0DD"/>
<path d="M4.20005 22.4H21C21.7733 22.4 22.4 21.7733 22.4 21V14.4667C22.4 13.6934 21.7733 13.0667 21 13.0667H4.20005C3.42678 13.0667 2.80005 13.6934 2.80005 14.4667V23.8C2.80005 23.0267 3.42678 22.4 4.20005 22.4Z" fill="#61C161"/>
<path d="M18.8006 14.9529C18.5523 14.8801 18.2933 15.0192 18.2196 15.2661L17.2666 18.4427L16.3137 15.2661C16.2395 15.0192 15.9805 14.8801 15.7327 14.9529C15.4858 15.0271 15.3458 15.2875 15.4196 15.5339L16.8196 20.2006C16.8788 20.398 17.0608 20.5333 17.2666 20.5333C17.4724 20.5333 17.6544 20.398 17.7137 20.2006L19.1137 15.5339C19.1874 15.2875 19.0474 15.0271 18.8006 14.9529Z" fill="white"/>
<path d="M7.93332 15.8667C8.44805 15.8667 8.86665 16.2853 8.86665 16.8C8.86665 17.0581 9.07525 17.2667 9.33332 17.2667C9.59138 17.2667 9.79998 17.0581 9.79998 16.8C9.79998 15.7705 8.96278 14.9333 7.93332 14.9333C6.90385 14.9333 6.06665 15.7705 6.06665 16.8V18.6667C6.06665 19.6961 6.90385 20.5333 7.93332 20.5333C8.96278 20.5333 9.79998 19.6961 9.79998 18.6667C9.79998 18.4086 9.59138 18.2 9.33332 18.2C9.07525 18.2 8.86665 18.4086 8.86665 18.6667C8.86665 19.1814 8.44805 19.6 7.93332 19.6C7.41858 19.6 6.99998 19.1814 6.99998 18.6667V16.8C6.99998 16.2853 7.41858 15.8667 7.93332 15.8667Z" fill="white"/>
<path d="M12.713 17.2807C11.9024 17.0777 11.6667 16.9596 11.6667 16.5667C11.6667 16.1873 12.0942 15.8667 12.6001 15.8667C13.2604 15.8667 13.5754 16.3824 13.5941 16.4146C13.7205 16.6372 14.0019 16.717 14.2264 16.5924C14.4513 16.4673 14.533 16.1836 14.4079 15.9582C14.3846 15.9162 13.8255 14.9338 12.6001 14.9338C11.5706 14.9338 10.7334 15.6665 10.7334 16.5672C10.7334 17.7483 11.7885 18.012 12.4871 18.1865C13.2977 18.3895 13.5334 18.5076 13.5334 18.9005C13.5334 19.2799 13.1059 19.6005 12.6001 19.6005C11.9337 19.6005 11.6187 19.0746 11.6079 19.0564C11.4829 18.8314 11.2001 18.7493 10.9737 18.8748C10.7488 18.9999 10.6671 19.2836 10.7922 19.509C10.8155 19.551 11.3746 20.5334 12.6001 20.5334C13.6295 20.5334 14.4667 19.8007 14.4667 18.9C14.4667 17.7189 13.4116 17.4552 12.713 17.2807Z" fill="white"/>
</svg>
