<svg width="20" height="20" viewBox="0 0 20 20" fill="none" xmlns="http://www.w3.org/2000/svg">
<path d="M6.87973 6.6399C6.87973 7.9999 5.83973 9.0399 4.47973 9.0399H2.71973V10.8799H4.47973C5.83973 10.8799 6.87973 11.9199 6.87973 13.2799C6.87973 14.6399 5.83973 15.6799 4.47973 15.6799H2.71973V17.0399C2.71973 18.4799 3.83973 19.5999 5.27973 19.5999H16.3997C17.8397 19.5999 18.9597 18.4799 18.9597 17.0399V2.9599C18.9597 1.5199 17.8397 0.399902 16.3997 0.399902H5.27973C3.83973 0.399902 2.71973 1.5199 2.71973 2.9599V4.2399H4.47973C5.75973 4.2399 6.87973 5.3599 6.87973 6.6399ZM11.9997 4.6399C13.0397 4.6399 13.8397 5.4399 13.8397 6.4799C13.8397 7.5199 12.9597 8.3199 11.9997 8.3199C10.9597 8.3199 10.1597 7.5199 10.1597 6.4799C10.1597 5.4399 11.0397 4.6399 11.9997 4.6399ZM11.9997 9.7599C13.8397 9.7599 15.3597 11.1999 15.5197 13.1199C15.5197 13.5999 15.1197 13.9199 14.7197 13.9199H9.35973C8.87973 13.9199 8.55973 13.5199 8.55973 13.1199C8.63973 11.1999 10.1597 9.7599 11.9997 9.7599Z" fill="white" fill-opacity="0.3"/>
<path d="M1.92012 7.51992H4.48012C4.96012 7.51992 5.28012 7.19992 5.28012 6.71992C5.28012 6.23992 4.96012 5.91992 4.48012 5.91992H1.92012C1.44012 5.91992 1.12012 6.23992 1.12012 6.71992C1.12012 7.19992 1.44012 7.51992 1.92012 7.51992Z" fill="white"/>
<path d="M1.92012 14.08H4.48012C4.96012 14.08 5.28012 13.76 5.28012 13.28C5.28012 12.8 4.96012 12.48 4.48012 12.48H1.92012C1.44012 12.48 1.12012 12.8 1.12012 13.28C1.12012 13.76 1.44012 14.08 1.92012 14.08Z" fill="white"/>
</svg>
