<svg width="55" height="55" viewBox="0 0 55 55" fill="none" xmlns="http://www.w3.org/2000/svg">
<mask id="mask0_450_1831" style="mask-type:alpha" maskUnits="userSpaceOnUse" x="0" y="0" width="55" height="55">
<rect width="55" height="55" rx="10" fill="#F4F4F4"/>
</mask>
<g mask="url(#mask0_450_1831)">
<rect x="-13" y="-15" width="81" height="85" fill="white"/>
<path d="M52.7992 48.3641C51.2237 44.8688 41.6244 41.8449 41.6244 41.8449C36.5048 40.0398 36.4706 38.2372 36.4706 38.2372C26.3974 58.0831 18.757 38.2909 18.757 38.2909C18.056 40.968 7.69707 44.114 7.69707 44.114C4.67317 45.2791 3.39082 47.0231 3.39082 47.0231C-1.08886 53.6596 -1.61157 68.442 -1.61157 68.442C-1.55295 71.8128 -0.102062 72.1645 -0.102062 72.1645C10.2007 76.7614 26.3486 77.5773 26.3486 77.5773C42.9385 77.9265 55.0122 72.8655 55.0122 72.8655C56.7635 71.7615 56.8148 70.8846 56.8148 70.8846C58.0385 60.2961 52.7992 48.3641 52.7992 48.3641Z" fill="#B4B4B4"/>
<path d="M16.219 27.7512C16.9884 34.1312 22.4793 40.7457 27.4622 40.7457C33.1876 40.7457 38.6296 33.7942 39.4772 27.7512C39.7996 27.5216 40.3296 26.9672 40.5226 25.7068C40.5226 25.7068 41.7463 21.3321 40.1269 21.8011C40.6936 20.1133 42.5622 13.5428 38.9349 9.4588C38.9349 9.4588 37.2398 7.1408 33.1094 5.91219C32.9653 5.7925 32.8187 5.67037 32.6502 5.55313C32.6502 5.55313 32.7406 5.65816 32.8749 5.84135C32.6404 5.7754 32.3913 5.71678 32.1446 5.65816C31.9223 5.42367 31.6683 5.18186 31.3849 4.92539C31.3849 4.92539 31.6341 5.18186 31.9345 5.60931C31.8197 5.58488 31.7196 5.55557 31.6072 5.53603C31.4191 5.25025 31.192 4.95714 30.9013 4.65915C30.9013 4.65915 31.0234 4.88875 31.1822 5.25025C30.4201 4.6909 28.8911 3.39878 28.8911 1.95278C28.8911 1.95278 27.936 2.39977 27.3767 3.21559C27.5965 2.54388 27.9653 1.92102 28.5662 1.40564C28.5662 1.40564 27.936 1.72806 27.3571 2.42664C26.9053 2.68066 25.8769 3.38412 25.5301 4.63472L25.2028 4.46863C25.364 4.11445 25.5887 3.74074 25.8965 3.36458C25.8965 3.36458 25.4495 3.76272 25.0587 4.39779L24.3967 4.0656C24.5946 3.69677 24.8535 3.31573 25.2052 2.94446C25.2052 2.94446 24.8486 3.21803 24.4725 3.67967C24.5775 3.24978 24.5604 2.75638 23.2219 4.22193C23.2219 4.22193 17.1911 6.83792 15.4471 12.2531C15.4471 12.2531 14.4213 14.6981 15.7818 21.8915C13.8497 20.978 15.1663 25.7044 15.1663 25.7044C15.3641 26.9672 15.8941 27.5192 16.219 27.7512ZM27.1764 2.66601C26.8833 3.07392 26.6292 3.58197 26.5071 4.20483L26.2971 4.12422C26.4607 3.60151 26.7367 3.09834 27.1764 2.66601Z" fill="#B4B4B4"/>
</g>
</svg>
