<svg width="24" height="24" viewBox="0 0 24 24" fill="none" xmlns="http://www.w3.org/2000/svg">
<path d="M18.3749 9.00002H5.62488C5.53413 9.00002 5.44862 8.98052 5.35938 8.97302L5.92488 20.3685C5.95525 20.9445 6.20565 21.4868 6.62436 21.8834C7.04307 22.2801 7.59811 22.5008 8.17487 22.5H15.8249C16.402 22.5008 16.9574 22.2798 17.3761 21.8826C17.7949 21.4855 18.0451 20.9426 18.0749 20.3663L18.6411 8.97302C18.5511 8.98052 18.4656 9.00002 18.3749 9.00002ZM9.74988 20.25C9.74988 20.4489 9.67086 20.6397 9.5302 20.7804C9.38955 20.921 9.19879 21 8.99988 21C8.80096 21 8.6102 20.921 8.46955 20.7804C8.32889 20.6397 8.24988 20.4489 8.24988 20.25V11.25C8.24988 11.0511 8.32889 10.8603 8.46955 10.7197C8.6102 10.579 8.80096 10.5 8.99988 10.5C9.19879 10.5 9.38955 10.579 9.5302 10.7197C9.67086 10.8603 9.74988 11.0511 9.74988 11.25V20.25ZM12.7499 20.25C12.7499 20.4489 12.6709 20.6397 12.5302 20.7804C12.3896 20.921 12.1988 21 11.9999 21C11.801 21 11.6102 20.921 11.4695 20.7804C11.3289 20.6397 11.2499 20.4489 11.2499 20.25V11.25C11.2499 11.0511 11.3289 10.8603 11.4695 10.7197C11.6102 10.579 11.801 10.5 11.9999 10.5C12.1988 10.5 12.3896 10.579 12.5302 10.7197C12.6709 10.8603 12.7499 11.0511 12.7499 11.25V20.25ZM15.7499 20.25C15.7499 20.4489 15.6709 20.6397 15.5302 20.7804C15.3896 20.921 15.1988 21 14.9999 21C14.801 21 14.6102 20.921 14.4695 20.7804C14.3289 20.6397 14.2499 20.4489 14.2499 20.25V11.25C14.2499 11.0511 14.3289 10.8603 14.4695 10.7197C14.6102 10.579 14.801 10.5 14.9999 10.5C15.1988 10.5 15.3896 10.579 15.5302 10.7197C15.6709 10.8603 15.7499 11.0511 15.7499 11.25V20.25Z" fill="black" fill-opacity="0.29"/>
<path d="M18.3749 3.75H15.7379C15.7326 3.1549 15.4939 2.58567 15.073 2.16485C14.6522 1.74403 14.083 1.50528 13.4879 1.5H10.4999C9.90315 1.5 9.33086 1.73705 8.9089 2.15901C8.48694 2.58097 8.24989 3.15326 8.24989 3.75H5.62489C3.20314 3.75 3.20839 7.5 5.62489 7.5H18.3749C20.7966 7.5 20.7914 3.75 18.3749 3.75ZM10.4999 3H13.4894C13.6875 3.00272 13.8766 3.08261 14.0167 3.22267C14.1568 3.36274 14.2367 3.55193 14.2394 3.75H9.74989C9.74989 3.55109 9.82891 3.36032 9.96956 3.21967C10.1102 3.07902 10.301 3 10.4999 3Z" fill="black" fill-opacity="0.29"/>
</svg>
